<svg width="264" height="27" viewBox="0 0 264 27" fill="none" xmlns="http://www.w3.org/2000/svg">
<g clip-path="url(#clip0_201_3)">
<path d="M12.672 26.46H1.296C0.84 26.46 0.504 26.364 0.288 26.172C0.096 25.956 0 25.62 0 25.164V20.952C0 20.496 0.096 20.172 0.288 19.98C0.504 19.764 0.84 19.656 1.296 19.656H10.98C11.292 19.656 11.52 19.56 11.664 19.368C11.832 19.152 11.916 18.9 11.916 18.612C11.916 18.204 11.832 17.904 11.664 17.712C11.52 17.52 11.292 17.412 10.98 17.388L5.58 16.632C3.9 16.392 2.544 15.84 1.512 14.976C0.504 14.112 0 12.672 0 10.656V6.876C0 4.836 0.66 3.276 1.98 2.196C3.3 1.092 5.124 0.539999 7.452 0.539999H17.532C17.988 0.539999 18.312 0.648 18.504 0.864C18.72 1.056 18.828 1.38 18.828 1.836V6.12C18.828 6.576 18.72 6.912 18.504 7.128C18.312 7.32 17.988 7.416 17.532 7.416H9.144C8.832 7.416 8.592 7.524 8.424 7.74C8.256 7.932 8.172 8.184 8.172 8.496C8.172 8.808 8.256 9.072 8.424 9.288C8.592 9.504 8.832 9.624 9.144 9.648L14.508 10.368C16.188 10.608 17.544 11.16 18.576 12.024C19.608 12.888 20.124 14.328 20.124 16.344V20.124C20.124 22.164 19.452 23.736 18.108 24.84C16.788 25.92 14.976 26.46 12.672 26.46Z" fill="#50FA7B"/>
<path d="M43.4301 19.656C43.4301 20.76 43.2621 21.768 42.9261 22.68C42.6141 23.568 42.0381 24.336 41.1981 24.984C40.3821 25.608 39.2541 26.1 37.8141 26.46C36.3741 26.82 34.5381 27 32.3061 27C30.0741 27 28.2381 26.82 26.7981 26.46C25.3581 26.1 24.2181 25.608 23.3781 24.984C22.5621 24.336 21.9861 23.568 21.6501 22.68C21.3381 21.768 21.1821 20.76 21.1821 19.656V1.836C21.1821 1.38 21.2781 1.056 21.4701 0.864C21.6861 0.648 22.0221 0.539999 22.4781 0.539999H28.1301C28.5861 0.539999 28.9101 0.648 29.1021 0.864C29.3181 1.056 29.4261 1.38 29.4261 1.836V18.252C29.4261 18.732 29.6061 19.14 29.9661 19.476C30.3261 19.788 31.1301 19.944 32.3781 19.944C33.6501 19.944 34.4661 19.788 34.8261 19.476C35.1861 19.14 35.3661 18.732 35.3661 18.252V1.836C35.3661 1.38 35.4621 1.056 35.6541 0.864C35.8701 0.648 36.2061 0.539999 36.6621 0.539999H42.1341C42.5901 0.539999 42.9141 0.648 43.1061 0.864C43.3221 1.056 43.4301 1.38 43.4301 1.836V19.656Z" fill="#50FA7B"/>
<path d="M53.6574 7.02V11.628H56.3574C56.9814 11.628 57.4014 11.472 57.6174 11.16C57.8334 10.824 57.9414 10.416 57.9414 9.936V8.712C57.9414 8.232 57.8334 7.836 57.6174 7.524C57.4014 7.188 56.9814 7.02 56.3574 7.02H53.6574ZM52.3614 26.46H46.8174C46.3614 26.46 46.0254 26.364 45.8094 26.172C45.6174 25.956 45.5214 25.62 45.5214 25.164V1.836C45.5214 1.38 45.6174 1.056 45.8094 0.864C46.0254 0.648 46.3614 0.539999 46.8174 0.539999H58.8054C61.4934 0.539999 63.3414 1.104 64.3494 2.232C65.3814 3.336 65.8974 4.776 65.8974 6.552V8.208C65.8974 9.216 65.7414 10.08 65.4294 10.8C65.1414 11.496 64.6254 12 63.8814 12.312C65.1774 12.456 66.2214 12.984 67.0134 13.896C67.8294 14.808 68.2374 16.02 68.2374 17.532V25.164C68.2374 25.62 68.1294 25.956 67.9134 26.172C67.7214 26.364 67.3974 26.46 66.9414 26.46H61.3614C60.9054 26.46 60.5694 26.364 60.3534 26.172C60.1614 25.956 60.0654 25.62 60.0654 25.164V19.656C60.0654 19.128 59.9574 18.744 59.7414 18.504C59.5494 18.24 59.2014 18.108 58.6974 18.108H53.6574V25.164C53.6574 25.62 53.5494 25.956 53.3334 26.172C53.1414 26.364 52.8174 26.46 52.3614 26.46Z" fill="#50FA7B"/>
<path d="M77.7113 7.02V11.628H80.4113C81.0353 11.628 81.4553 11.472 81.6713 11.16C81.8873 10.824 81.9953 10.416 81.9953 9.936V8.712C81.9953 8.232 81.8873 7.836 81.6713 7.524C81.4553 7.188 81.0353 7.02 80.4113 7.02H77.7113ZM76.4153 26.46H70.8713C70.4153 26.46 70.0793 26.364 69.8633 26.172C69.6713 25.956 69.5753 25.62 69.5753 25.164V1.836C69.5753 1.38 69.6713 1.056 69.8633 0.864C70.0793 0.648 70.4153 0.539999 70.8713 0.539999H82.8593C85.5473 0.539999 87.3953 1.104 88.4033 2.232C89.4353 3.336 89.9513 4.776 89.9513 6.552V8.208C89.9513 9.216 89.7953 10.08 89.4833 10.8C89.1953 11.496 88.6793 12 87.9353 12.312C89.2313 12.456 90.2753 12.984 91.0673 13.896C91.8833 14.808 92.2913 16.02 92.2913 17.532V25.164C92.2913 25.62 92.1833 25.956 91.9673 26.172C91.7753 26.364 91.4513 26.46 90.9953 26.46H85.4153C84.9593 26.46 84.6233 26.364 84.4073 26.172C84.2153 25.956 84.1193 25.62 84.1193 25.164V19.656C84.1193 19.128 84.0113 18.744 83.7953 18.504C83.6033 18.24 83.2553 18.108 82.7513 18.108H77.7113V25.164C77.7113 25.62 77.6033 25.956 77.3873 26.172C77.1953 26.364 76.8713 26.46 76.4153 26.46Z" fill="#50FA7B"/>
<path d="M111.629 26.46H94.9252C94.4692 26.46 94.1332 26.364 93.9172 26.172C93.7252 25.956 93.6292 25.62 93.6292 25.164V1.836C93.6292 1.38 93.7252 1.056 93.9172 0.864C94.1332 0.648 94.4692 0.539999 94.9252 0.539999H111.629C112.085 0.539999 112.409 0.648 112.601 0.864C112.817 1.056 112.925 1.38 112.925 1.836V6.048C112.925 6.504 112.817 6.84 112.601 7.056C112.409 7.248 112.085 7.344 111.629 7.344H101.693V10.116H108.713C109.169 10.116 109.493 10.224 109.685 10.44C109.901 10.632 110.009 10.956 110.009 11.412V15.264C110.009 15.72 109.901 16.056 109.685 16.272C109.493 16.464 109.169 16.56 108.713 16.56H101.693V19.656H111.629C112.085 19.656 112.409 19.764 112.601 19.98C112.817 20.172 112.925 20.496 112.925 20.952V25.164C112.925 25.62 112.817 25.956 112.601 26.172C112.409 26.364 112.085 26.46 111.629 26.46Z" fill="#50FA7B"/>
<path d="M127.912 26.46H115.78C115.324 26.46 114.988 26.364 114.772 26.172C114.58 25.956 114.484 25.62 114.484 25.164V1.836C114.484 1.38 114.58 1.056 114.772 0.864C114.988 0.648 115.324 0.539999 115.78 0.539999H127.912C130.912 0.539999 133.132 1.14 134.572 2.34C136.036 3.54 136.768 5.388 136.768 7.884V19.116C136.768 21.612 136.036 23.46 134.572 24.66C133.132 25.86 130.912 26.46 127.912 26.46ZM122.656 7.416V19.656H126.94C127.516 19.656 127.936 19.512 128.2 19.224C128.488 18.936 128.632 18.492 128.632 17.892V9.144C128.632 8.544 128.488 8.112 128.2 7.848C127.936 7.56 127.516 7.416 126.94 7.416H122.656Z" fill="#50FA7B"/>
<path d="M150.667 26.46H139.291C138.835 26.46 138.499 26.364 138.283 26.172C138.091 25.956 137.995 25.62 137.995 25.164V20.952C137.995 20.496 138.091 20.172 138.283 19.98C138.499 19.764 138.835 19.656 139.291 19.656H148.975C149.287 19.656 149.515 19.56 149.659 19.368C149.827 19.152 149.911 18.9 149.911 18.612C149.911 18.204 149.827 17.904 149.659 17.712C149.515 17.52 149.287 17.412 148.975 17.388L143.575 16.632C141.895 16.392 140.539 15.84 139.507 14.976C138.499 14.112 137.995 12.672 137.995 10.656V6.876C137.995 4.836 138.655 3.276 139.975 2.196C141.295 1.092 143.119 0.539999 145.447 0.539999H155.527C155.983 0.539999 156.307 0.648 156.499 0.864C156.715 1.056 156.823 1.38 156.823 1.836V6.12C156.823 6.576 156.715 6.912 156.499 7.128C156.307 7.32 155.983 7.416 155.527 7.416H147.139C146.827 7.416 146.587 7.524 146.419 7.74C146.251 7.932 146.167 8.184 146.167 8.496C146.167 8.808 146.251 9.072 146.419 9.288C146.587 9.504 146.827 9.624 147.139 9.648L152.503 10.368C154.183 10.608 155.539 11.16 156.571 12.024C157.603 12.888 158.119 14.328 158.119 16.344V20.124C158.119 22.164 157.447 23.736 156.103 24.84C154.783 25.92 152.971 26.46 150.667 26.46Z" fill="#FF79C6"/>
<path d="M175.386 26.46H169.554C169.098 26.46 168.762 26.364 168.546 26.172C168.354 25.956 168.258 25.62 168.258 25.164V7.488H162.966C162.51 7.488 162.174 7.392 161.958 7.2C161.766 6.984 161.67 6.648 161.67 6.192V1.836C161.67 1.38 161.766 1.056 161.958 0.864C162.174 0.648 162.51 0.539999 162.966 0.539999H181.974C182.43 0.539999 182.754 0.648 182.946 0.864C183.162 1.056 183.27 1.38 183.27 1.836V6.192C183.27 6.648 183.162 6.984 182.946 7.2C182.754 7.392 182.43 7.488 181.974 7.488H176.682V25.164C176.682 25.62 176.574 25.956 176.358 26.172C176.166 26.364 175.842 26.46 175.386 26.46Z" fill="#FF79C6"/>
<path d="M209.995 19.656C209.995 20.76 209.827 21.768 209.491 22.68C209.179 23.568 208.603 24.336 207.763 24.984C206.947 25.608 205.807 26.1 204.343 26.46C202.903 26.82 201.067 27 198.835 27C196.603 27 194.755 26.82 193.291 26.46C191.827 26.1 190.675 25.608 189.835 24.984C189.019 24.336 188.443 23.568 188.107 22.68C187.795 21.768 187.639 20.76 187.639 19.656V7.38C187.639 6.276 187.795 5.28 188.107 4.392C188.443 3.48 189.019 2.7 189.835 2.052C190.675 1.404 191.827 0.899999 193.291 0.539999C194.755 0.18 196.603 0 198.835 0C201.067 0 202.903 0.18 204.343 0.539999C205.807 0.899999 206.947 1.404 207.763 2.052C208.603 2.7 209.179 3.48 209.491 4.392C209.827 5.28 209.995 6.276 209.995 7.38V19.656ZM195.811 18.36C195.811 18.84 195.991 19.248 196.351 19.584C196.711 19.896 197.539 20.052 198.835 20.052C200.131 20.052 200.959 19.896 201.319 19.584C201.679 19.248 201.859 18.84 201.859 18.36V8.676C201.859 8.22 201.679 7.836 201.319 7.524C200.959 7.188 200.131 7.02 198.835 7.02C197.539 7.02 196.711 7.188 196.351 7.524C195.991 7.836 195.811 8.22 195.811 8.676V18.36Z" fill="#FF79C6"/>
<path d="M222.714 26.46H217.314C216.858 26.46 216.522 26.364 216.306 26.172C216.114 25.956 216.018 25.62 216.018 25.164V1.836C216.018 1.38 216.114 1.056 216.306 0.864C216.522 0.648 216.858 0.539999 217.314 0.539999H221.058C221.514 0.539999 221.898 0.611999 222.21 0.755999C222.546 0.9 222.87 1.152 223.182 1.512L230.166 9.504V1.836C230.166 1.38 230.262 1.056 230.454 0.864C230.67 0.648 231.006 0.539999 231.462 0.539999H236.862C237.318 0.539999 237.642 0.648 237.834 0.864C238.05 1.056 238.158 1.38 238.158 1.836V25.164C238.158 25.62 238.05 25.956 237.834 26.172C237.642 26.364 237.318 26.46 236.862 26.46H231.462C231.006 26.46 230.67 26.364 230.454 26.172C230.262 25.956 230.166 25.62 230.166 25.164V20.736L224.01 13.284V25.164C224.01 25.62 223.902 25.956 223.686 26.172C223.494 26.364 223.17 26.46 222.714 26.46Z" fill="#FF79C6"/>
<path d="M262.563 26.46H245.859C245.403 26.46 245.067 26.364 244.851 26.172C244.659 25.956 244.563 25.62 244.563 25.164V1.836C244.563 1.38 244.659 1.056 244.851 0.864C245.067 0.648 245.403 0.539999 245.859 0.539999H262.563C263.019 0.539999 263.343 0.648 263.535 0.864C263.751 1.056 263.859 1.38 263.859 1.836V6.048C263.859 6.504 263.751 6.84 263.535 7.056C263.343 7.248 263.019 7.344 262.563 7.344H252.627V10.116H259.647C260.103 10.116 260.427 10.224 260.619 10.44C260.835 10.632 260.943 10.956 260.943 11.412V15.264C260.943 15.72 260.835 16.056 260.619 16.272C260.427 16.464 260.103 16.56 259.647 16.56H252.627V19.656H262.563C263.019 19.656 263.343 19.764 263.535 19.98C263.751 20.172 263.859 20.496 263.859 20.952V25.164C263.859 25.62 263.751 25.956 263.535 26.172C263.343 26.364 263.019 26.46 262.563 26.46Z" fill="#FF79C6"/>
</g>
<defs>
<clipPath id="clip0_201_3">
<rect width="264" height="27" fill="white"/>
</clipPath>
</defs>
</svg>
